<svg width="1470" height="826" viewBox="0 0 1470 826" fill="none" xmlns="http://www.w3.org/2000/svg">
<g clip-path="url(#clip0_13_2)">
<rect width="1470" height="826" transform="matrix(-1 0 0 -1 1470 826)" fill="#3C223F"/>
<g opacity="0.6" filter="url(#filter0_f_13_2)">
<path d="M762.733 -14.0333C659.424 137.901 230.455 422.197 18.1928 211.285C-144.86 49.2692 -459.138 460.049 -774.174 409.865C-1097.34 358.385 -1476.68 -57.3963 -1494.18 -69.5961L-1494.72 -69.4685C-1494.94 -69.9623 -1494.75 -69.9958 -1494.18 -69.5961L-826.935 -227.286L676.367 -297.397L762.733 -14.0333Z" fill="#64B6BB"/>
<path d="M762.733 -14.0333C659.424 137.901 230.455 422.197 18.1928 211.285C-144.86 49.2693 -459.138 460.049 -774.174 409.865C-1107.93 356.698 -1501.6 -85.0338 -1494.72 -69.4685L-826.935 -227.286L676.367 -297.397L762.733 -14.0333Z" stroke="#64B6BB" stroke-width="22"/>
</g>
<g opacity="0.6" filter="url(#filter1_f_13_2)">
<path d="M1586 125.5C1456.17 255.5 981.7 454.8 812.5 208C605.624 -93.7554 37.5736 282.827 22.1929 339.678L22 343C21.7814 342.06 21.8491 340.949 22.1929 339.678L64 -380.5L1554 -169L1586 125.5Z" fill="#ED4B4E"/>
<path d="M1586 125.5C1456.17 255.5 981.7 454.8 812.5 208C601 -100.5 12 300 22 343L64 -380.5L1554 -169L1586 125.5Z" stroke="#ED4B4E" stroke-width="22"/>
</g>
<g opacity="0.6" filter="url(#filter2_f_13_2)">
<path d="M1948 120.189C1818.17 250.189 1343.7 449.489 1174.5 202.689C1044.53 13.1052 659.148 358.061 359 250C51.1031 139.149 -244.028 -340.086 -258.946 -355.336L-259.5 -355.311C-259.622 -355.837 -259.434 -355.836 -258.946 -355.336L426 -385.811L1916 -174.311L1948 120.189Z" fill="#8164BB"/>
<path d="M1948 120.189C1818.17 250.189 1343.7 449.489 1174.5 202.689C1044.53 13.1052 659.148 358.061 359 250C41.0149 135.517 -263.355 -371.886 -259.5 -355.311L426 -385.811L1916 -174.311L1948 120.189Z" stroke="#8164BB" stroke-width="22"/>
</g>
<g opacity="0.6" filter="url(#filter3_f_13_2)">
<path d="M222.556 632.261C329.79 483.072 766.025 210.055 972.717 426.429C1131.49 592.64 1456.37 190.192 1769.99 248.572C2091.71 308.458 2460.07 733.987 2477.25 746.639L2477.79 746.525C2478 747.025 2477.81 747.053 2477.25 746.639L1806.12 886.881L301.505 917.78L222.556 632.261Z" fill="#64B6BB"/>
<path d="M222.556 632.261C329.79 483.072 766.025 210.055 972.717 426.429C1131.49 592.64 1456.37 190.192 1769.99 248.572C2102.25 310.421 2484.26 762.265 2477.79 746.525L1806.12 886.881L301.505 917.78L222.556 632.261Z" stroke="#64B6BB" stroke-width="22"/>
</g>
<g opacity="0.6" filter="url(#filter4_f_13_2)">
<path d="M-596.794 471.314C-463.616 344.743 15.8848 157.879 178.594 409.006C377.533 716.052 955.207 354.406 972.065 297.975L972.344 294.659C972.538 295.604 972.442 296.713 972.065 297.975L911.498 1016.82L-572.482 766.549L-596.794 471.314Z" fill="#ED4B4E"/>
<path d="M-596.794 471.314C-463.616 344.743 15.8848 157.879 178.594 409.006C381.98 722.915 981.22 337.905 972.344 294.659L911.498 1016.82L-572.482 766.549L-596.794 471.314Z" stroke="#ED4B4E" stroke-width="22"/>
</g>
<g opacity="0.6" filter="url(#filter5_f_13_2)">
<path d="M-958.81 467.187C-825.631 340.616 -346.131 153.752 -183.422 404.879C-58.4343 597.786 335.805 262.994 633.034 378.842C937.937 497.682 1220.48 984.448 1234.99 1000.08L1235.54 1000.07C1235.65 1000.6 1235.47 1000.59 1234.99 1000.08L549.483 1012.69L-934.498 762.421L-958.81 467.187Z" fill="#8164BB"/>
<path d="M-958.81 467.187C-825.631 340.616 -346.131 153.752 -183.422 404.879C-58.4343 597.786 335.805 262.994 633.034 378.842C947.927 501.576 1238.97 1016.74 1235.54 1000.07L549.483 1012.69L-934.498 762.421L-958.81 467.187Z" stroke="#8164BB" stroke-width="22"/>
</g>
</g>
<defs>
<filter id="filter0_f_13_2" x="-1905.81" y="-708.784" width="3080.6" height="1533.93" filterUnits="userSpaceOnUse" color-interpolation-filters="sRGB">
<feFlood flood-opacity="0" result="BackgroundImageFix"/>
<feBlend mode="normal" in="SourceGraphic" in2="BackgroundImageFix" result="shape"/>
<feGaussianBlur stdDeviation="200" result="effect1_foregroundBlur_13_2"/>
</filter>
<filter id="filter1_f_13_2" x="-389.126" y="-793.071" width="2386.63" height="1538.56" filterUnits="userSpaceOnUse" color-interpolation-filters="sRGB">
<feFlood flood-opacity="0" result="BackgroundImageFix"/>
<feBlend mode="normal" in="SourceGraphic" in2="BackgroundImageFix" result="shape"/>
<feGaussianBlur stdDeviation="200" result="effect1_foregroundBlur_13_2"/>
</filter>
<filter id="filter2_f_13_2" x="-670.535" y="-796.846" width="3030.04" height="1527.82" filterUnits="userSpaceOnUse" color-interpolation-filters="sRGB">
<feFlood flood-opacity="0" result="BackgroundImageFix"/>
<feBlend mode="normal" in="SourceGraphic" in2="BackgroundImageFix" result="shape"/>
<feGaussianBlur stdDeviation="200" result="effect1_foregroundBlur_13_2"/>
</filter>
<filter id="filter3_f_13_2" x="-189.45" y="-168.27" width="3078.33" height="1497.22" filterUnits="userSpaceOnUse" color-interpolation-filters="sRGB">
<feFlood flood-opacity="0" result="BackgroundImageFix"/>
<feBlend mode="normal" in="SourceGraphic" in2="BackgroundImageFix" result="shape"/>
<feGaussianBlur stdDeviation="200" result="effect1_foregroundBlur_13_2"/>
</filter>
<filter id="filter4_f_13_2" x="-1008.19" y="-126.146" width="2391.63" height="1555.8" filterUnits="userSpaceOnUse" color-interpolation-filters="sRGB">
<feFlood flood-opacity="0" result="BackgroundImageFix"/>
<feBlend mode="normal" in="SourceGraphic" in2="BackgroundImageFix" result="shape"/>
<feGaussianBlur stdDeviation="200" result="effect1_foregroundBlur_13_2"/>
</filter>
<filter id="filter5_f_13_2" x="-1370.2" y="-130.273" width="3016.78" height="1553.98" filterUnits="userSpaceOnUse" color-interpolation-filters="sRGB">
<feFlood flood-opacity="0" result="BackgroundImageFix"/>
<feBlend mode="normal" in="SourceGraphic" in2="BackgroundImageFix" result="shape"/>
<feGaussianBlur stdDeviation="200" result="effect1_foregroundBlur_13_2"/>
</filter>
<clipPath id="clip0_13_2">
<rect width="1470" height="826" fill="white" transform="matrix(-1 0 0 -1 1470 826)"/>
</clipPath>
</defs>
</svg>
